<svg xmlns="http://www.w3.org/2000/svg" viewBox="0 0 420 620" role="img" aria-label="Mayeu, distillateur de nectar">
  <defs>
    <linearGradient id="bg" x1="0" y1="0" x2="1" y2="1">
      <stop offset="0" stop-color="#132b2a"/>
      <stop offset="0.52" stop-color="#295b58"/>
      <stop offset="1" stop-color="#14120e"/>
    </linearGradient>
    <radialGradient id="glow" cx="62%" cy="20%" r="62%">
      <stop offset="0" stop-color="#ffcd77" stop-opacity="0.62"/>
      <stop offset="1" stop-color="#ffcd77" stop-opacity="0"/>
    </radialGradient>
    <filter id="soft" x="-12%" y="-12%" width="124%" height="124%">
      <feDropShadow dx="0" dy="12" stdDeviation="12" flood-color="#061112" flood-opacity="0.58"/>
    </filter>
  </defs>
  <rect width="420" height="620" rx="26" fill="url(#bg)"/>
  <rect width="420" height="620" rx="26" fill="url(#glow)"/>
  <g opacity="0.34" fill="none" stroke="#7ed0ba" stroke-width="4" stroke-linecap="round">
    <path d="M38 475c34-88 74-142 120-160"/>
    <path d="M69 501c47-58 100-86 158-84"/>
    <path d="M354 491c-48-86-96-133-144-141"/>
    <path d="M326 525c-42-55-92-84-151-88"/>
  </g>
  <g transform="translate(210 320)" filter="url(#soft)">
    <path d="M-80 171c6-80 27-142 80-145 53 3 74 65 80 145z" fill="#203b3c"/>
    <path d="M-97 82c25-49 57-74 97-74s72 25 97 74c-21 28-53 42-97 42S-76 110-97 82z" fill="#275152"/>
    <circle cx="0" cy="-30" r="57" fill="#c89568"/>
    <path d="M-56-35c8-43 36-70 82-67 34 2 55 25 64 69-37-14-82-15-146-2z" fill="#3b2a20"/>
    <path d="M-56-24c31-12 69-14 113-6" stroke="#2d211a" stroke-width="7" stroke-linecap="round"/>
    <circle cx="-22" cy="-24" r="5" fill="#17201d"/>
    <circle cx="23" cy="-24" r="5" fill="#17201d"/>
    <path d="M-16 17c15 10 32 10 48 0" fill="none" stroke="#74462e" stroke-width="5" stroke-linecap="round"/>
    <path d="M-66 132c-33-2-62 12-87 41" fill="none" stroke="#182b2d" stroke-width="28" stroke-linecap="round"/>
    <path d="M70 126c37 5 67 24 88 57" fill="none" stroke="#182b2d" stroke-width="28" stroke-linecap="round"/>
    <path d="M-114 161c19-30 40-51 64-64" stroke="#86d0c0" stroke-width="10" stroke-linecap="round"/>
    <path d="M113 171c-17-33-40-55-70-66" stroke="#ffc267" stroke-width="10" stroke-linecap="round"/>
  </g>
  <g transform="translate(61 79)">
    <path d="M218 31c0 33-19 54-48 54s-48-21-48-54h96z" fill="#d9f2dc" opacity="0.18"/>
    <path d="M139 31h62M170 31v-22M149 88h42" stroke="#c7f3e8" stroke-width="7" stroke-linecap="round"/>
    <path d="M142 86c11 24 46 24 57 0z" fill="#ffbf5e" opacity="0.84"/>
    <circle cx="238" cy="75" r="8" fill="#ffd983"/>
    <circle cx="261" cy="47" r="5" fill="#ffd983" opacity="0.75"/>
    <circle cx="112" cy="55" r="6" fill="#8ee0ca" opacity="0.8"/>
  </g>
  <text x="28" y="572" fill="#f8ffe4" font-family="Georgia, serif" font-size="34" font-weight="700">Mayeu</text>
  <text x="29" y="598" fill="#bdeedc" font-family="Segoe UI, sans-serif" font-size="17">Distillateur de nectar</text>
</svg>
