<?xml version="1.0" encoding="UTF-8"?>
<svg xmlns="http://www.w3.org/2000/svg" width="200" height="240" viewBox="0 0 200 240">
  <defs>
    <linearGradient id="bg" x1="0" y1="0" x2="0" y2="1">
      <stop offset="0%" stop-color="#ffb1a5" stop-opacity="0.48"/>
      <stop offset="55%" stop-color="#c42b2b" stop-opacity="0.72"/>
      <stop offset="100%" stop-color="#140606" stop-opacity="0.96"/>
    </linearGradient>
    <radialGradient id="glow" cx="48%" cy="28%" r="59%">
      <stop offset="0%" stop-color="#ffc0b6" stop-opacity="0.62"/>
      <stop offset="100%" stop-color="#c42b2b" stop-opacity="0"/>
    </radialGradient>
    <linearGradient id="tube" x1="0" y1="0" x2="1" y2="1">
      <stop offset="0%" stop-color="#ff8975"/>
      <stop offset="43%" stop-color="#c42b2b"/>
      <stop offset="100%" stop-color="#5e1010"/>
    </linearGradient>
    <linearGradient id="mouth" x1="0" y1="0" x2="1" y2="1">
      <stop offset="0%" stop-color="#ffd2c9"/>
      <stop offset="55%" stop-color="#ff7770"/>
      <stop offset="100%" stop-color="#8f181b"/>
    </linearGradient>
  </defs>
  <rect width="200" height="240" fill="url(#bg)"/>
  <rect width="200" height="240" fill="url(#glow)"/>
  <ellipse cx="99" cy="216" rx="55" ry="13" fill="#080404" opacity="0.48"/>
  <path d="M76 214 C81 166 76 112 87 70 C92 51 106 45 121 57 C139 71 134 116 128 157 C124 184 125 201 131 214 Z" fill="url(#tube)"/>
  <path d="M87 70 C100 88 118 87 131 68 C126 105 127 165 118 214 L101 218 C110 149 108 96 87 70 Z" fill="#4b0b0d" opacity="0.28"/>
  <path d="M65 68 C82 34 123 24 149 45 C134 53 127 66 125 87 C105 74 85 72 65 68 Z" fill="url(#mouth)"/>
  <path d="M76 65 C94 50 113 49 132 57 C117 66 98 69 76 65 Z" fill="#4c0c0e" opacity="0.42"/>
  <path d="M94 51 C103 22 137 15 160 30 C144 41 134 54 131 70 C119 57 106 51 94 51 Z" fill="#ffaaa0"/>
  <path d="M101 58 C117 41 136 32 157 30" stroke="#8d171b" stroke-width="3" fill="none" opacity="0.7"/>
  <path d="M92 84 C105 123 108 169 103 209" stroke="#ffd2c9" stroke-width="3" fill="none" opacity="0.62"/>
  <path d="M111 85 C118 124 117 167 111 208" stroke="#651015" stroke-width="2" fill="none" opacity="0.55"/>
  <path d="M83 98 C97 109 117 111 130 99" stroke="#ffb2a8" stroke-width="2" fill="none" opacity="0.5"/>
  <path d="M86 123 C100 136 119 136 130 124" stroke="#ff6b62" stroke-width="2" fill="none" opacity="0.52"/>
  <path d="M88 148 C101 160 117 160 128 149" stroke="#6c1215" stroke-width="1.7" fill="none" opacity="0.42"/>
  <circle cx="128" cy="72" r="4" fill="#ffd8cf" opacity="0.85"/>
</svg>
