<?xml version="1.0" encoding="UTF-8"?>
<svg xmlns="http://www.w3.org/2000/svg" width="200" height="240" viewBox="0 0 200 240">
  <defs>
    <linearGradient id="bg" x1="0" y1="0" x2="0" y2="1">
      <stop offset="0%" stop-color="#c9ff9b" stop-opacity="0.46"/>
      <stop offset="55%" stop-color="#2d7a28" stop-opacity="0.66"/>
      <stop offset="100%" stop-color="#0a1408" stop-opacity="0.96"/>
    </linearGradient>
    <radialGradient id="glow" cx="48%" cy="27%" r="58%">
      <stop offset="0%" stop-color="#d9ffc2" stop-opacity="0.58"/>
      <stop offset="100%" stop-color="#2d7a28" stop-opacity="0"/>
    </radialGradient>
    <linearGradient id="tube" x1="0" y1="0" x2="1" y2="1">
      <stop offset="0%" stop-color="#79c94d"/>
      <stop offset="48%" stop-color="#2f8a2d"/>
      <stop offset="100%" stop-color="#124412"/>
    </linearGradient>
    <linearGradient id="mouth" x1="0" y1="0" x2="1" y2="1">
      <stop offset="0%" stop-color="#e4ffc9"/>
      <stop offset="70%" stop-color="#8ddd5d"/>
      <stop offset="100%" stop-color="#276b24"/>
    </linearGradient>
  </defs>
  <rect width="200" height="240" fill="url(#bg)"/>
  <rect width="200" height="240" fill="url(#glow)"/>
  <ellipse cx="100" cy="216" rx="54" ry="13" fill="#071107" opacity="0.45"/>
  <path d="M78 215 C83 168 78 113 88 72 C92 55 105 49 119 60 C134 73 130 116 124 155 C120 180 119 200 124 215 Z" fill="url(#tube)"/>
  <path d="M88 72 C100 85 116 84 128 68 C123 100 124 151 116 213 L101 217 C109 150 108 99 88 72 Z" fill="#0e3310" opacity="0.28"/>
  <path d="M70 70 C85 39 122 29 145 49 C134 55 127 66 124 84 C106 73 88 72 70 70 Z" fill="url(#mouth)"/>
  <path d="M79 67 C93 55 109 53 126 61 C114 67 100 70 79 67 Z" fill="#11370f" opacity="0.42"/>
  <path d="M94 52 C103 25 133 18 154 30 C139 41 131 51 127 65 C116 55 105 51 94 52 Z" fill="#a7ee78"/>
  <path d="M100 58 C115 42 131 34 149 31" stroke="#2f7b26" stroke-width="3" fill="none" opacity="0.65"/>
  <path d="M94 84 C105 124 107 166 102 207" stroke="#c9ff9b" stroke-width="3" fill="none" opacity="0.65"/>
  <path d="M112 86 C118 122 116 162 111 204" stroke="#163f13" stroke-width="2" fill="none" opacity="0.35"/>
  <path d="M83 98 C93 106 112 109 125 100" stroke="#d9ffc2" stroke-width="2" fill="none" opacity="0.48"/>
  <circle cx="126" cy="70" r="4" fill="#e8ffd8" opacity="0.8"/>
</svg>
