<svg xmlns="http://www.w3.org/2000/svg" viewBox="0 0 512 512" role="img" aria-label="Les Gloutonnes RDTD">
  <defs>
    <linearGradient id="bg" x1="0" y1="0" x2="1" y2="1">
      <stop offset="0" stop-color="#5e1fa8"/>
      <stop offset="0.55" stop-color="#3d1578"/>
      <stop offset="1" stop-color="#120820"/>
    </linearGradient>
    <radialGradient id="glow" cx="62%" cy="24%" r="72%">
      <stop offset="0" stop-color="#ffb74d" stop-opacity="0.75"/>
      <stop offset="0.45" stop-color="#ff9100" stop-opacity="0.28"/>
      <stop offset="1" stop-color="#ff9100" stop-opacity="0"/>
    </radialGradient>
    <filter id="shadow" x="-18%" y="-18%" width="136%" height="136%">
      <feDropShadow dx="0" dy="16" stdDeviation="16" flood-color="#120820" flood-opacity="0.55"/>
    </filter>
  </defs>
  <rect width="512" height="512" rx="116" fill="url(#bg)"/>
  <rect width="512" height="512" rx="116" fill="url(#glow)"/>
  <path d="M54 388c73-52 140-65 202-39 69 29 136 11 202-54v176H54z" fill="#0a0614" opacity="0.62"/>
  <g transform="translate(256 268)" filter="url(#shadow)">
    <ellipse cx="0" cy="132" rx="118" ry="42" fill="#120820" opacity="0.48"/>
    <path d="M-118 50c-46-83 9-174 106-184C89-144 149-48 108 48 76 122-77 127-118 50z" fill="#7b2cbf"/>
    <path d="M-98 12c54 47 151 47 207 1-16 82-168 101-207-1z" fill="#2d1154"/>
    <path d="M-74 19l25 52 27-52 27 52 28-52 27 52 26-52" fill="none" stroke="#ffe082" stroke-width="14" stroke-linecap="round" stroke-linejoin="round"/>
    <path d="M-101-22c33-47 81-71 145-71" fill="none" stroke="#ffb74d" stroke-width="18" stroke-linecap="round"/>
    <circle cx="72" cy="-58" r="34" fill="#fff3e0"/>
    <circle cx="84" cy="-56" r="13" fill="#2d1154"/>
    <path d="M-76 146c47-47 105-50 171-10" fill="none" stroke="#ff9100" stroke-width="24" stroke-linecap="round"/>
  </g>
  <path d="M116 128c40-47 90-62 149-45-32 34-81 51-149 45z" fill="#ffb74d" opacity="0.86"/>
  <path d="M127 122c47-16 85-27 127-36" fill="none" stroke="#5e1fa8" stroke-width="8" stroke-linecap="round"/>
</svg>
